<mxfile host="app.diagrams.net" modified="2024-02-21T14:27:14.431Z" agent="Mozilla/5.0 (Windows NT 10.0; Win64; x64) AppleWebKit/537.36 (KHTML, like Gecko) Chrome/119.0.0.0 Safari/537.36" etag="TM5AWTgO_CqICLMjB-2D" version="23.1.5" type="github">
  <diagram name="Página-1" id="90l4WW7jN_LVAfWG3sPw">
    <mxGraphModel dx="2140" dy="1875" grid="1" gridSize="10" guides="1" tooltips="1" connect="1" arrows="1" fold="1" page="1" pageScale="1" pageWidth="827" pageHeight="1169" math="0" shadow="0">
      <root>
        <mxCell id="0" />
        <mxCell id="1" parent="0" />
        <mxCell id="gnCCzN9J53n9b-ZjmNMW-61" value="" style="rounded=0;whiteSpace=wrap;html=1;fillColor=#d5e8d4;strokeColor=#82b366;" vertex="1" parent="1">
          <mxGeometry x="280" y="-260" width="490" height="690" as="geometry" />
        </mxCell>
        <mxCell id="gnCCzN9J53n9b-ZjmNMW-60" value="" style="rounded=0;whiteSpace=wrap;html=1;fillColor=#dae8fc;strokeColor=#6c8ebf;" vertex="1" parent="1">
          <mxGeometry x="-210" y="-260" width="490" height="690" as="geometry" />
        </mxCell>
        <mxCell id="gnCCzN9J53n9b-ZjmNMW-41" style="edgeStyle=orthogonalEdgeStyle;rounded=0;orthogonalLoop=1;jettySize=auto;html=1;exitX=1;exitY=0.5;exitDx=0;exitDy=0;arcSize=0;endArrow=none;endFill=0;" edge="1" parent="1" source="gnCCzN9J53n9b-ZjmNMW-1">
          <mxGeometry relative="1" as="geometry">
            <mxPoint x="30" y="-90.47058823529414" as="targetPoint" />
          </mxGeometry>
        </mxCell>
        <mxCell id="gnCCzN9J53n9b-ZjmNMW-1" value="Tempo dinamico" style="rounded=0;whiteSpace=wrap;html=1;" vertex="1" parent="1">
          <mxGeometry x="-160" y="-110" width="130" height="40" as="geometry" />
        </mxCell>
        <mxCell id="gnCCzN9J53n9b-ZjmNMW-2" value="" style="endArrow=none;html=1;rounded=0;" edge="1" parent="1">
          <mxGeometry width="50" height="50" relative="1" as="geometry">
            <mxPoint x="30" y="390" as="sourcePoint" />
            <mxPoint x="30" y="-175" as="targetPoint" />
          </mxGeometry>
        </mxCell>
        <mxCell id="gnCCzN9J53n9b-ZjmNMW-42" style="edgeStyle=orthogonalEdgeStyle;rounded=0;orthogonalLoop=1;jettySize=auto;html=1;exitX=1;exitY=0.5;exitDx=0;exitDy=0;endArrow=none;endFill=0;" edge="1" parent="1" source="gnCCzN9J53n9b-ZjmNMW-3">
          <mxGeometry relative="1" as="geometry">
            <mxPoint x="30" y="-39.88235294117635" as="targetPoint" />
          </mxGeometry>
        </mxCell>
        <mxCell id="gnCCzN9J53n9b-ZjmNMW-3" value="Home office" style="rounded=0;whiteSpace=wrap;html=1;" vertex="1" parent="1">
          <mxGeometry x="-160" y="-60" width="130" height="40" as="geometry" />
        </mxCell>
        <mxCell id="gnCCzN9J53n9b-ZjmNMW-4" value="Gera pró-atividade" style="rounded=0;whiteSpace=wrap;html=1;" vertex="1" parent="1">
          <mxGeometry x="-160" y="-10" width="130" height="40" as="geometry" />
        </mxCell>
        <mxCell id="gnCCzN9J53n9b-ZjmNMW-5" value="Visibilidade na profissão e networking (contato direto com o cliente)" style="rounded=0;whiteSpace=wrap;html=1;" vertex="1" parent="1">
          <mxGeometry x="-160" y="40" width="130" height="70" as="geometry" />
        </mxCell>
        <mxCell id="gnCCzN9J53n9b-ZjmNMW-6" value="Mexe com arquitetura e pousada, e design" style="rounded=0;whiteSpace=wrap;html=1;" vertex="1" parent="1">
          <mxGeometry x="-160" y="120" width="130" height="50" as="geometry" />
        </mxCell>
        <mxCell id="gnCCzN9J53n9b-ZjmNMW-7" value="Prós" style="text;html=1;align=center;verticalAlign=middle;whiteSpace=wrap;rounded=0;" vertex="1" parent="1">
          <mxGeometry x="-140" y="-170" width="161" height="30" as="geometry" />
        </mxCell>
        <mxCell id="gnCCzN9J53n9b-ZjmNMW-8" value="Contras" style="text;html=1;align=center;verticalAlign=middle;whiteSpace=wrap;rounded=0;" vertex="1" parent="1">
          <mxGeometry x="60" y="-170" width="140" height="30" as="geometry" />
        </mxCell>
        <mxCell id="gnCCzN9J53n9b-ZjmNMW-9" value="Natália" style="text;html=1;align=center;verticalAlign=middle;whiteSpace=wrap;rounded=0;fontSize=18;" vertex="1" parent="1">
          <mxGeometry x="-30" y="-215" width="130" height="30" as="geometry" />
        </mxCell>
        <mxCell id="gnCCzN9J53n9b-ZjmNMW-10" value="Não tem teto salarial" style="rounded=0;whiteSpace=wrap;html=1;" vertex="1" parent="1">
          <mxGeometry x="-160" y="180" width="130" height="50" as="geometry" />
        </mxCell>
        <mxCell id="gnCCzN9J53n9b-ZjmNMW-11" value="Perspectiva de crescimento maior dado ao maior envolvimento nos projetos" style="rounded=0;whiteSpace=wrap;html=1;" vertex="1" parent="1">
          <mxGeometry x="-160" y="240" width="130" height="90" as="geometry" />
        </mxCell>
        <mxCell id="gnCCzN9J53n9b-ZjmNMW-12" value="Grandes períodos com pouco/sem salário" style="rounded=0;whiteSpace=wrap;html=1;" vertex="1" parent="1">
          <mxGeometry x="65" y="-90" width="140" height="50" as="geometry" />
        </mxCell>
        <mxCell id="gnCCzN9J53n9b-ZjmNMW-13" value="Não implementa BIM" style="rounded=0;whiteSpace=wrap;html=1;" vertex="1" parent="1">
          <mxGeometry x="65" y="-30" width="130" height="50" as="geometry" />
        </mxCell>
        <mxCell id="gnCCzN9J53n9b-ZjmNMW-15" value="Criação livre" style="rounded=0;whiteSpace=wrap;html=1;" vertex="1" parent="1">
          <mxGeometry x="-159" y="340" width="130" height="40" as="geometry" />
        </mxCell>
        <mxCell id="gnCCzN9J53n9b-ZjmNMW-17" value="" style="endArrow=none;html=1;rounded=0;" edge="1" parent="1">
          <mxGeometry width="50" height="50" relative="1" as="geometry">
            <mxPoint x="510" y="355" as="sourcePoint" />
            <mxPoint x="510" y="-175" as="targetPoint" />
          </mxGeometry>
        </mxCell>
        <mxCell id="gnCCzN9J53n9b-ZjmNMW-22" value="Prós" style="text;html=1;align=center;verticalAlign=middle;whiteSpace=wrap;rounded=0;" vertex="1" parent="1">
          <mxGeometry x="270" y="-155" width="230" height="30" as="geometry" />
        </mxCell>
        <mxCell id="gnCCzN9J53n9b-ZjmNMW-23" value="Contras" style="text;html=1;align=center;verticalAlign=middle;whiteSpace=wrap;rounded=0;" vertex="1" parent="1">
          <mxGeometry x="530" y="-155" width="230" height="30" as="geometry" />
        </mxCell>
        <mxCell id="gnCCzN9J53n9b-ZjmNMW-24" value="Monolíto" style="text;html=1;align=center;verticalAlign=middle;whiteSpace=wrap;rounded=0;fontSize=16;" vertex="1" parent="1">
          <mxGeometry x="440" y="-215" width="140" height="30" as="geometry" />
        </mxCell>
        <mxCell id="gnCCzN9J53n9b-ZjmNMW-28" value="3x presencial&amp;nbsp;" style="rounded=0;whiteSpace=wrap;html=1;" vertex="1" parent="1">
          <mxGeometry x="550" y="-65" width="130" height="25" as="geometry" />
        </mxCell>
        <mxCell id="gnCCzN9J53n9b-ZjmNMW-52" style="edgeStyle=orthogonalEdgeStyle;rounded=0;orthogonalLoop=1;jettySize=auto;html=1;exitX=1;exitY=0.5;exitDx=0;exitDy=0;endArrow=none;endFill=0;" edge="1" parent="1" source="gnCCzN9J53n9b-ZjmNMW-30">
          <mxGeometry relative="1" as="geometry">
            <mxPoint x="510" y="-66.94117647058829" as="targetPoint" />
          </mxGeometry>
        </mxCell>
        <mxCell id="gnCCzN9J53n9b-ZjmNMW-30" value="Implementa BIM" style="rounded=0;whiteSpace=wrap;html=1;" vertex="1" parent="1">
          <mxGeometry x="350" y="-95" width="130" height="45" as="geometry" />
        </mxCell>
        <mxCell id="gnCCzN9J53n9b-ZjmNMW-31" value="Gerencia de uma equipe" style="rounded=0;whiteSpace=wrap;html=1;" vertex="1" parent="1">
          <mxGeometry x="350" y="-45" width="130" height="45" as="geometry" />
        </mxCell>
        <mxCell id="gnCCzN9J53n9b-ZjmNMW-32" value="Salário fixo com abertura de negociação salarial" style="rounded=0;whiteSpace=wrap;html=1;" vertex="1" parent="1">
          <mxGeometry x="330" y="50" width="150" height="40" as="geometry" />
        </mxCell>
        <mxCell id="gnCCzN9J53n9b-ZjmNMW-34" value="Eventuais visitas a obra" style="rounded=0;whiteSpace=wrap;html=1;" vertex="1" parent="1">
          <mxGeometry x="340" y="10" width="140" height="30" as="geometry" />
        </mxCell>
        <mxCell id="gnCCzN9J53n9b-ZjmNMW-35" value="Trabalho fulltime(8hrs)" style="rounded=0;whiteSpace=wrap;html=1;" vertex="1" parent="1">
          <mxGeometry x="550" y="-30" width="130" height="30" as="geometry" />
        </mxCell>
        <mxCell id="gnCCzN9J53n9b-ZjmNMW-58" style="edgeStyle=orthogonalEdgeStyle;rounded=0;orthogonalLoop=1;jettySize=auto;html=1;exitX=0;exitY=0.5;exitDx=0;exitDy=0;endArrow=none;endFill=0;" edge="1" parent="1" source="gnCCzN9J53n9b-ZjmNMW-36">
          <mxGeometry relative="1" as="geometry">
            <mxPoint x="510" y="37.55172413793116" as="targetPoint" />
          </mxGeometry>
        </mxCell>
        <mxCell id="gnCCzN9J53n9b-ZjmNMW-36" value="Não conseguir pegar projetos pessoais/freelas" style="rounded=0;whiteSpace=wrap;html=1;" vertex="1" parent="1">
          <mxGeometry x="550" y="20" width="140" height="35" as="geometry" />
        </mxCell>
        <mxCell id="gnCCzN9J53n9b-ZjmNMW-59" style="edgeStyle=orthogonalEdgeStyle;rounded=0;orthogonalLoop=1;jettySize=auto;html=1;exitX=0;exitY=0.5;exitDx=0;exitDy=0;endArrow=none;endFill=0;" edge="1" parent="1" source="gnCCzN9J53n9b-ZjmNMW-40">
          <mxGeometry relative="1" as="geometry">
            <mxPoint x="510" y="100" as="targetPoint" />
          </mxGeometry>
        </mxCell>
        <mxCell id="gnCCzN9J53n9b-ZjmNMW-40" value="Gastos adicionais de gasolina e estacionamento (~ 300,00)" style="rounded=0;whiteSpace=wrap;html=1;" vertex="1" parent="1">
          <mxGeometry x="550" y="70" width="170" height="60" as="geometry" />
        </mxCell>
        <mxCell id="gnCCzN9J53n9b-ZjmNMW-43" style="edgeStyle=orthogonalEdgeStyle;rounded=0;orthogonalLoop=1;jettySize=auto;html=1;exitX=1;exitY=0.5;exitDx=0;exitDy=0;endArrow=none;endFill=0;" edge="1" parent="1" source="gnCCzN9J53n9b-ZjmNMW-4">
          <mxGeometry relative="1" as="geometry">
            <mxPoint x="30" y="10" as="targetPoint" />
            <mxPoint x="-20" y="-30" as="sourcePoint" />
          </mxGeometry>
        </mxCell>
        <mxCell id="gnCCzN9J53n9b-ZjmNMW-44" style="edgeStyle=orthogonalEdgeStyle;rounded=0;orthogonalLoop=1;jettySize=auto;html=1;exitX=1;exitY=0.5;exitDx=0;exitDy=0;endArrow=none;endFill=0;" edge="1" parent="1" source="gnCCzN9J53n9b-ZjmNMW-5">
          <mxGeometry relative="1" as="geometry">
            <mxPoint x="30" y="75" as="targetPoint" />
            <mxPoint x="-10" y="-20" as="sourcePoint" />
          </mxGeometry>
        </mxCell>
        <mxCell id="gnCCzN9J53n9b-ZjmNMW-45" style="edgeStyle=orthogonalEdgeStyle;rounded=0;orthogonalLoop=1;jettySize=auto;html=1;exitX=1;exitY=0.5;exitDx=0;exitDy=0;endArrow=none;endFill=0;" edge="1" parent="1" source="gnCCzN9J53n9b-ZjmNMW-6">
          <mxGeometry relative="1" as="geometry">
            <mxPoint x="30" y="145" as="targetPoint" />
            <mxPoint y="-10" as="sourcePoint" />
          </mxGeometry>
        </mxCell>
        <mxCell id="gnCCzN9J53n9b-ZjmNMW-46" style="edgeStyle=orthogonalEdgeStyle;rounded=0;orthogonalLoop=1;jettySize=auto;html=1;exitX=1;exitY=0.5;exitDx=0;exitDy=0;endArrow=none;endFill=0;" edge="1" parent="1" source="gnCCzN9J53n9b-ZjmNMW-10">
          <mxGeometry relative="1" as="geometry">
            <mxPoint x="30" y="205" as="targetPoint" />
            <mxPoint x="10" as="sourcePoint" />
          </mxGeometry>
        </mxCell>
        <mxCell id="gnCCzN9J53n9b-ZjmNMW-47" style="edgeStyle=orthogonalEdgeStyle;rounded=0;orthogonalLoop=1;jettySize=auto;html=1;exitX=1;exitY=0.5;exitDx=0;exitDy=0;endArrow=none;endFill=0;" edge="1" parent="1" source="gnCCzN9J53n9b-ZjmNMW-11">
          <mxGeometry relative="1" as="geometry">
            <mxPoint x="30" y="285" as="targetPoint" />
            <mxPoint x="20" y="10" as="sourcePoint" />
          </mxGeometry>
        </mxCell>
        <mxCell id="gnCCzN9J53n9b-ZjmNMW-48" style="edgeStyle=orthogonalEdgeStyle;rounded=0;orthogonalLoop=1;jettySize=auto;html=1;exitX=1;exitY=0.5;exitDx=0;exitDy=0;endArrow=none;endFill=0;" edge="1" parent="1" source="gnCCzN9J53n9b-ZjmNMW-15">
          <mxGeometry relative="1" as="geometry">
            <mxPoint x="30" y="360" as="targetPoint" />
            <mxPoint x="30" y="20" as="sourcePoint" />
          </mxGeometry>
        </mxCell>
        <mxCell id="gnCCzN9J53n9b-ZjmNMW-49" style="edgeStyle=orthogonalEdgeStyle;rounded=0;orthogonalLoop=1;jettySize=auto;html=1;exitX=0;exitY=0.5;exitDx=0;exitDy=0;endArrow=none;endFill=0;" edge="1" parent="1" source="gnCCzN9J53n9b-ZjmNMW-12">
          <mxGeometry relative="1" as="geometry">
            <mxPoint x="30" y="-65" as="targetPoint" />
            <mxPoint x="40" y="30" as="sourcePoint" />
          </mxGeometry>
        </mxCell>
        <mxCell id="gnCCzN9J53n9b-ZjmNMW-50" style="edgeStyle=orthogonalEdgeStyle;rounded=0;orthogonalLoop=1;jettySize=auto;html=1;endArrow=none;endFill=0;entryX=0;entryY=0.25;entryDx=0;entryDy=0;" edge="1" parent="1" target="gnCCzN9J53n9b-ZjmNMW-13">
          <mxGeometry relative="1" as="geometry">
            <mxPoint x="60" y="-10" as="targetPoint" />
            <mxPoint x="30" y="-10" as="sourcePoint" />
          </mxGeometry>
        </mxCell>
        <mxCell id="gnCCzN9J53n9b-ZjmNMW-53" style="edgeStyle=orthogonalEdgeStyle;rounded=0;orthogonalLoop=1;jettySize=auto;html=1;exitX=1;exitY=0.5;exitDx=0;exitDy=0;endArrow=none;endFill=0;" edge="1" parent="1" source="gnCCzN9J53n9b-ZjmNMW-31">
          <mxGeometry relative="1" as="geometry">
            <mxPoint x="510" y="-12" as="targetPoint" />
            <mxPoint x="490" y="-57" as="sourcePoint" />
          </mxGeometry>
        </mxCell>
        <mxCell id="gnCCzN9J53n9b-ZjmNMW-54" style="edgeStyle=orthogonalEdgeStyle;rounded=0;orthogonalLoop=1;jettySize=auto;html=1;exitX=1;exitY=0.5;exitDx=0;exitDy=0;endArrow=none;endFill=0;" edge="1" parent="1" source="gnCCzN9J53n9b-ZjmNMW-34">
          <mxGeometry relative="1" as="geometry">
            <mxPoint x="510" y="35" as="targetPoint" />
            <mxPoint x="500" y="-47" as="sourcePoint" />
          </mxGeometry>
        </mxCell>
        <mxCell id="gnCCzN9J53n9b-ZjmNMW-55" style="edgeStyle=orthogonalEdgeStyle;rounded=0;orthogonalLoop=1;jettySize=auto;html=1;exitX=1;exitY=0.5;exitDx=0;exitDy=0;endArrow=none;endFill=0;" edge="1" parent="1" source="gnCCzN9J53n9b-ZjmNMW-32">
          <mxGeometry relative="1" as="geometry">
            <mxPoint x="510" y="80" as="targetPoint" />
            <mxPoint x="510" y="-37" as="sourcePoint" />
          </mxGeometry>
        </mxCell>
        <mxCell id="gnCCzN9J53n9b-ZjmNMW-56" style="edgeStyle=orthogonalEdgeStyle;rounded=0;orthogonalLoop=1;jettySize=auto;html=1;endArrow=none;endFill=0;" edge="1" parent="1">
          <mxGeometry relative="1" as="geometry">
            <mxPoint x="550" y="-50" as="targetPoint" />
            <mxPoint x="510" y="-50" as="sourcePoint" />
          </mxGeometry>
        </mxCell>
        <mxCell id="gnCCzN9J53n9b-ZjmNMW-57" style="edgeStyle=orthogonalEdgeStyle;rounded=0;orthogonalLoop=1;jettySize=auto;html=1;endArrow=none;endFill=0;entryX=0;entryY=0.5;entryDx=0;entryDy=0;" edge="1" parent="1" target="gnCCzN9J53n9b-ZjmNMW-35">
          <mxGeometry relative="1" as="geometry">
            <mxPoint x="560" y="11" as="targetPoint" />
            <mxPoint x="510" y="-15" as="sourcePoint" />
          </mxGeometry>
        </mxCell>
      </root>
    </mxGraphModel>
  </diagram>
</mxfile>
